<?xml version="1.0" encoding="UTF-8" standalone="no" ?>
<!DOCTYPE svg PUBLIC "-//W3C//DTD SVG 1.1//EN" "http://www.w3.org/Graphics/SVG/1.1/DTD/svg11.dtd">
<svg xmlns="http://www.w3.org/2000/svg" xmlns:xlink="http://www.w3.org/1999/xlink" version="1.1" width="25" height="25" viewBox="0 0 500 500" xml:space="preserve">
<desc>Created with Fabric.js 4.6.0</desc>
<defs>
</defs>
<g transform="matrix(1 0 0 1 131.69 239.06)" id="Z7Whl1Bss2vXgqwW5iO0P"  >
<path style="stroke: rgb(231,247,32); stroke-width: 0; stroke-dasharray: none; stroke-linecap: butt; stroke-dashoffset: 0; stroke-linejoin: miter; stroke-miterlimit: 4; fill: rgb(255,243,18); fill-rule: nonzero; opacity: 1;" vector-effect="non-scaling-stroke"  transform=" translate(-57.54, -57.54)" d="M 57.53647 0 C 89.2966 0 115.07294 25.77634 115.07294 57.53647 C 115.07294 89.2966 89.2966 115.07294 57.53647 115.07294 C 25.77634 115.07294 0 89.2966 0 57.53647 C 0 25.77634 25.77634 0 57.53647 0 z" stroke-linecap="round" />
</g>
<g transform="matrix(1 0 0 1 210.85 239.06)" id="laEoLsvCJvsA5WwR2Az95"  >
<path style="stroke: rgb(244,39,157); stroke-width: 0; stroke-dasharray: none; stroke-linecap: butt; stroke-dashoffset: 0; stroke-linejoin: miter; stroke-miterlimit: 4; fill: rgb(244,39,157); fill-rule: nonzero; opacity: 1;" vector-effect="non-scaling-stroke"  transform=" translate(-57.54, -57.54)" d="M 57.53647 0 C 89.2966 0 115.07294 25.77634 115.07294 57.53647 C 115.07294 89.2966 89.2966 115.07294 57.53647 115.07294 C 25.77634 115.07294 0 89.2966 0 57.53647 C 0 25.77634 25.77634 0 57.53647 0 z" stroke-linecap="round" />
</g>
<g transform="matrix(1 0 0 1 297.56 239.06)" id="BEyrWbw-EfCOpD3i8zYlP"  >
<path style="stroke: rgb(231,247,32); stroke-width: 0; stroke-dasharray: none; stroke-linecap: butt; stroke-dashoffset: 0; stroke-linejoin: miter; stroke-miterlimit: 4; fill: rgb(108,59,244); fill-rule: nonzero; opacity: 1;" vector-effect="non-scaling-stroke"  transform=" translate(-57.54, -57.54)" d="M 57.53647 0 C 89.2966 0 115.07294 25.77634 115.07294 57.53647 C 115.07294 89.2966 89.2966 115.07294 57.53647 115.07294 C 25.77634 115.07294 0 89.2966 0 57.53647 C 0 25.77634 25.77634 0 57.53647 0 z" stroke-linecap="round" />
</g>
</svg>